<svg width="15" height="22" viewBox="0 0 15 22" fill="none" xmlns="http://www.w3.org/2000/svg">
<path d="M12.5172 0.600334H9.63025V2.80239H12.5172V0.600334Z" fill="#EFEFEF"/>
<path d="M13.766 2.80233H1.53271V20.908H13.766V2.80233Z" fill="#FF0202"/>
<path fill-rule="evenodd" clip-rule="evenodd" d="M12.5121 7.57453e-05C12.0321 -9.46817e-05 9.62987 7.57453e-05 9.62987 7.57453e-05C9.29837 7.57453e-05 9.02955 0.268839 9.02955 0.60039V2.20207H0.600314C0.26882 2.20207 0 2.47084 0 2.80239C0 3.13394 0.26882 3.4027 0.600314 3.4027H0.932429V5.27496H0.600314C0.26882 5.27496 0 5.54372 0 5.87527C0 6.20682 0.26882 6.47558 0.600314 6.47558H0.932429V17.2348H0.600314C0.26882 17.2348 0 17.5036 0 17.8351C0 18.1667 0.26882 18.4354 0.600314 18.4354H0.932429V20.3077H0.600314C0.26882 20.3077 0 20.5765 0 20.908C0 21.2396 0.26882 21.5083 0.600314 21.5083H14.3997C14.7312 21.5083 15 21.2396 15 20.908C15 20.5765 14.7312 20.3077 14.3997 20.3077H14.3665V18.4354H14.3997C14.7312 18.4354 15 18.1667 15 17.8351C15 17.5036 14.7312 17.2348 14.3997 17.2348H14.3665V6.47558H14.3997C14.7312 6.47558 15 6.20682 15 5.87527C15 5.54372 14.7312 5.27496 14.3997 5.27496H14.3665V3.4027H14.3997C14.7312 3.4027 15 3.13394 15 2.80239C15 2.47084 14.7312 2.20207 14.3997 2.20207H13.1174C13.1174 2.20207 13.1174 0.950742 13.1174 0.60039C13.1174 0.26867 12.8435 -9.46817e-05 12.5121 7.57453e-05ZM11.9167 1.20076H10.2303V2.20213H11.9167V1.20076ZM13.1659 3.4027H2.13306V5.27496H13.1659V3.4027ZM2.13306 20.3077H13.1659V18.4354H2.13306V20.3077ZM2.13306 6.47564V17.2348L13.1659 17.2349V6.47564H2.13306Z" fill="#231F20"/>
<path d="M9.86778 13.2158C9.86778 14.441 8.87459 15.4342 7.6494 15.4342C6.42421 15.4342 5.43103 14.441 5.43103 13.2158C5.43103 11.9906 7.6494 8.27635 7.6494 8.27635C7.6494 8.27635 9.86778 11.9906 9.86778 13.2158Z" fill="#FFDE17"/>
<path d="M8.16489 7.96858C8.05654 7.78716 7.86084 7.67604 7.6495 7.67604C7.43821 7.67604 7.24246 7.78716 7.1341 7.96858C6.74948 8.61253 4.83081 11.892 4.83081 13.2158C4.83081 14.77 6.09524 16.0345 7.6495 16.0345C9.20375 16.0345 10.4681 14.77 10.4681 13.2158C10.4682 11.892 8.54957 8.61253 8.16489 7.96858ZM7.6495 14.8337C6.75733 14.8337 6.03144 14.1079 6.03144 13.2157C6.03144 12.6198 6.8624 10.8999 7.6495 9.48105C8.43659 10.8999 9.2675 12.6198 9.2675 13.2157C9.26756 14.108 8.54172 14.8337 7.6495 14.8337Z" fill="#231F20"/>
</svg>
