<svg width="47" height="24" viewBox="0 0 47 24" fill="none" xmlns="http://www.w3.org/2000/svg">
<path d="M1.04211 7.0808L3.29657 7.69565L2.73297 13.1438C2.70135 13.5112 2.75425 13.6495 2.95541 13.7989L5.14113 15.0739V17.1234C6.62442 19.8382 8.93927 20.7101 14.9788 21.4274C16.9542 21.6017 18.034 21.611 19.8976 21.4274L28.3006 18.763L29.3253 17.1234L28.9154 16.3036L30.1451 15.0739L27.6857 8.51546L24.4065 7.69565L22.357 6.26099V2.36693L18.8728 1.95703V1.13723C18.5381 0.928902 18.2971 0.981475 17.8481 1.13723L17.2332 1.95703L13.954 2.36693L14.159 1.54713C13.6238 1.46346 13.3154 1.44517 12.7243 1.54713L12.3144 2.57188V1.13723C11.9656 0.954654 11.7884 0.969154 11.4946 1.13723L10.6748 2.98178L1.24707 4.38591L1.04211 4.6891V7.0808Z" fill="#A6EA65"/>
<path d="M1.24707 4.38591L10.6748 2.98178L11.4946 1.13723C11.7884 0.969154 11.9656 0.954654 12.3144 1.13723V2.57188L12.7243 1.54713C13.3154 1.44517 13.6238 1.46346 14.159 1.54713L13.954 2.36693L17.2332 1.95703L17.8481 1.13723C18.2971 0.981475 18.5381 0.928902 18.8728 1.13723V1.95703L22.357 2.36693V6.26099L24.4065 7.69565L27.6857 8.51546L30.1451 15.0739L28.9154 16.3036L29.3253 17.1234L28.3006 18.763L19.8976 21.4274C18.034 21.611 16.9542 21.6017 14.9788 21.4274C8.93927 20.7101 6.62442 19.8382 5.14113 17.1234V15.0739L2.95541 13.7989C2.75425 13.6495 2.70135 13.5112 2.73297 13.1438L3.29657 7.69565L1.04211 7.0808V4.6891M1.24707 4.38591L1.04211 4.41644V4.6891M1.24707 4.38591L1.04211 4.6891" stroke="black" stroke-width="0.5"/>
<path d="M22.7668 10.2227L24.6114 9.4029L26.251 10.2227H28.0956L45.3114 2.63953H46.3362C46.7552 3.04122 46.7819 3.2655 46.5411 3.66428L28.9154 12.6821L27.8906 14.7316L26.251 16.1663H24.6114L22.7668 10.2227Z" fill="#00C23B" stroke="black" stroke-width="0.25"/>
<path d="M22.562 17.2413L20.1026 16.0116L18.6679 11.0928C19.0796 10.7907 19.3323 10.6411 19.8976 10.4779C20.556 10.4053 20.9122 10.4167 21.5372 10.4779L22.562 12.1175L24.8164 12.7324L44.4917 11.7076C44.8589 12.2949 44.8582 12.6089 44.4917 13.1423L24.8164 14.9869L24.4065 15.3968L22.9121 16.8912L22.562 17.2413Z" fill="#00C23B" stroke="black" stroke-width="0.25"/>
<path d="M13.3392 13.9118V12.6821L13.954 12.0672L14.7738 11.8623L15.1837 11.6574L15.7986 11.8623H16.6184L17.8481 12.6821L19.2827 14.9365L20.9224 16.1662L40.3927 21.29C40.5529 21.9767 40.4572 22.3289 39.9828 22.9296C39.4226 23.0316 39.1083 23.0149 38.5481 22.9296L21.3323 18.6256C20.6644 18.489 20.2617 18.4242 19.2827 18.4207L18.5654 18.7281L17.8481 19.0355H15.3887L14.159 16.986L13.954 15.1415L13.3392 13.9118Z" fill="#00C23B" stroke="black" stroke-width="0.25"/>
</svg>
