<svg width="24" height="24" viewBox="0 0 24 24" fill="none" xmlns="http://www.w3.org/2000/svg">
<path d="M12 23.722C18.6274 23.722 24 18.6191 24 12.3243C24 6.02957 18.6274 0.926651 12 0.926651C5.37258 0.926651 0 6.02957 0 12.3243C0 18.6191 5.37258 23.722 12 23.722Z" fill="#FDBB6D"/>
<path d="M14.8429 22.0313C8.09204 22.0313 2.61941 16.9039 2.61941 10.5788C2.61941 7.1996 4.18182 4.16269 6.66638 2.06639C2.70913 3.96213 0 7.81938 0 12.2695C0 18.5945 5.47264 23.722 12.2235 23.722C15.3676 23.722 18.2341 22.6094 20.4 20.782C18.7327 21.5807 16.8441 22.0313 14.8429 22.0313Z" fill="#FCA86B"/>
<path d="M21.2576 10.1718H17.2068C16.9332 10.1718 16.7114 9.96107 16.7114 9.70121C16.7114 9.44136 16.9332 9.23067 17.2068 9.23067H21.2576C21.5313 9.23067 21.753 9.44136 21.753 9.70121C21.753 9.96107 21.5313 10.1718 21.2576 10.1718Z" fill="#7F184C"/>
<path d="M11.9794 10.1718H7.92864C7.65496 10.1718 7.43323 9.96107 7.43323 9.70121C7.43323 9.44136 7.65501 9.23067 7.92864 9.23067H11.9794C12.2531 9.23067 12.4748 9.44136 12.4748 9.70121C12.4748 9.96107 12.2531 10.1718 11.9794 10.1718Z" fill="#7F184C"/>
<path d="M19.2322 17.157H10.2913C10.0176 17.157 9.7959 16.9463 9.7959 16.6864C9.7959 16.4266 10.0176 16.2159 10.2913 16.2159H19.2322C19.5059 16.2159 19.7276 16.4266 19.7276 16.6864C19.7276 16.9463 19.5059 17.157 19.2322 17.157Z" fill="#7F184C"/>
<path d="M16.298 5.37427C16.5116 4.65744 15.5892 3.78185 14.2377 3.41859C12.8862 3.05532 11.6175 3.34194 11.4039 4.05877C11.1904 4.7756 12.1128 5.65119 13.4643 6.01445C14.8157 6.37772 16.0845 6.0911 16.298 5.37427Z" fill="#FCEB88"/>
</svg>
