<svg width="24" height="24" viewBox="0 0 24 24" fill="none" xmlns="http://www.w3.org/2000/svg">
<path d="M12 23.722C18.6274 23.722 24 18.6191 24 12.3243C24 6.02956 18.6274 0.926651 12 0.926651C5.37258 0.926651 0 6.02956 0 12.3243C0 18.6191 5.37258 23.722 12 23.722Z" fill="#FDDF6D"/>
<path d="M14.5714 22.0394C7.94404 22.0394 2.5715 16.9365 2.5715 10.6418C2.5715 7.27871 4.10533 4.25634 6.54446 2.17009C2.65958 4.05675 0 7.89552 0 12.3243C0 18.6191 5.37254 23.722 11.9999 23.722C15.0866 23.722 17.9007 22.6147 20.0269 20.7961C18.3901 21.5909 16.536 22.0394 14.5714 22.0394Z" fill="#FCC56B"/>
<path d="M9.923 10.187C10.7318 10.187 11.3875 9.56427 11.3875 8.79604C11.3875 8.02782 10.7318 7.40504 9.923 7.40504C9.11418 7.40504 8.4585 8.02782 8.4585 8.79604C8.4585 9.56427 9.11418 10.187 9.923 10.187Z" fill="#7F184C"/>
<path d="M18.168 10.187C18.9768 10.187 19.6325 9.56427 19.6325 8.79604C19.6325 8.02782 18.9768 7.40504 18.168 7.40504C17.3592 7.40504 16.7035 8.02782 16.7035 8.79604C16.7035 9.56427 17.3592 10.187 18.168 10.187Z" fill="#7F184C"/>
<path d="M6.84316 11.6187C5.95202 11.6187 5.22949 12.3048 5.22949 13.1512H8.45673C8.45673 12.3048 7.73429 11.6187 6.84316 11.6187Z" fill="#F9A880"/>
<path d="M20.918 11.4133C20.0268 11.4133 19.3043 12.0995 19.3043 12.9459H22.5316C22.5316 12.0995 21.8092 11.4133 20.918 11.4133Z" fill="#F9A880"/>
<path d="M14.2456 18.538C12.9525 18.538 11.7578 17.8708 11.128 16.7969C10.9968 16.5731 11.0813 16.2908 11.3169 16.1662C11.5523 16.0414 11.8497 16.1218 11.9809 16.3456C12.4385 17.1259 13.3063 17.6107 14.2456 17.6107C15.161 17.6107 16.0387 17.121 16.5361 16.3328C16.6748 16.1132 16.9745 16.0418 17.2058 16.1735C17.4371 16.3052 17.5122 16.59 17.3735 16.8096C16.7006 17.8757 15.5021 18.538 14.2456 18.538Z" fill="#7F184C"/>
<path d="M16.2919 4.74453C16.5024 4.0382 15.5935 3.17544 14.2618 2.8175C12.9301 2.45956 11.68 2.74198 11.4696 3.4483C11.2591 4.15463 12.168 5.01739 13.4997 5.37533C14.8314 5.73327 16.0815 5.45085 16.2919 4.74453Z" fill="#FCEB88"/>
</svg>
