<svg width="24" height="24" viewBox="0 0 24 24" fill="none" xmlns="http://www.w3.org/2000/svg">
<path d="M12 23.722C18.6274 23.722 23.9999 18.6191 23.9999 12.3243C23.9999 6.02956 18.6274 0.926651 12 0.926651C5.37257 0.926651 0 6.02956 0 12.3243C0 18.6191 5.37257 23.722 12 23.722Z" fill="#FDDF6D"/>
<path d="M14.5714 22.0394C7.94404 22.0394 2.5715 16.9365 2.5715 10.6418C2.5715 7.27871 4.10533 4.25634 6.54446 2.17009C2.65958 4.05675 0 7.89552 0 12.3243C0 18.6191 5.37254 23.722 11.9999 23.722C15.0866 23.722 17.9007 22.6147 20.0269 20.7961C18.3901 21.5909 16.536 22.0394 14.5714 22.0394Z" fill="#FCC56B"/>
<path d="M13.7459 19.9773C11.0633 19.9773 8.88855 17.9118 8.88855 15.3638H18.6032C18.6032 17.9118 16.4285 19.9773 13.7459 19.9773Z" fill="#7F184C"/>
<path d="M11.5265 9.25993C11.2568 9.25993 11.0383 9.05232 11.0383 8.79628C11.0383 8.19821 10.5261 7.71163 9.89635 7.71163C9.26668 7.71163 8.75438 8.19826 8.75438 8.79628C8.75438 9.05237 8.53581 9.25993 8.26623 9.25993C7.99661 9.25993 7.77808 9.05232 7.77808 8.79628C7.77808 7.68688 8.72837 6.78433 9.89635 6.78433C11.0643 6.78433 12.0146 7.68688 12.0146 8.79628C12.0147 9.05232 11.7961 9.25993 11.5265 9.25993Z" fill="#7F184C"/>
<path d="M19.7717 9.25993C19.5021 9.25993 19.2835 9.05232 19.2835 8.79628C19.2835 8.19821 18.7713 7.71163 18.1416 7.71163C17.5119 7.71163 16.9996 8.19826 16.9996 8.79628C16.9996 9.05237 16.781 9.25993 16.5115 9.25993C16.2419 9.25993 16.0233 9.05232 16.0233 8.79628C16.0233 7.68688 16.9736 6.78433 18.1416 6.78433C19.3096 6.78433 20.2599 7.68688 20.2599 8.79628C20.2599 9.05232 20.0413 9.25993 19.7717 9.25993Z" fill="#7F184C"/>
<path d="M6.84306 11.6187C5.95193 11.6187 5.22949 12.3048 5.22949 13.1512H8.45673C8.45663 12.3048 7.7342 11.6187 6.84306 11.6187Z" fill="#F9A880"/>
<path d="M20.9179 11.4133C20.0268 11.4133 19.3043 12.0995 19.3043 12.9459H22.5316C22.5316 12.0995 21.8091 11.4133 20.9179 11.4133Z" fill="#F9A880"/>
<path d="M10.0737 15.3638V16.084C10.0737 16.3876 10.3329 16.6338 10.6526 16.6338H16.8392C17.1589 16.6338 17.4181 16.3876 17.4181 16.084V15.3638H10.0737Z" fill="#F2F2F2"/>
<path d="M13.8479 18.0633C12.5349 17.4839 11.0779 17.5681 9.89636 18.169C10.7842 19.2681 12.1804 19.9773 13.7516 19.9773C14.444 19.9773 15.102 19.8387 15.6981 19.5908C15.2608 18.9481 14.6338 18.4101 13.8479 18.0633Z" fill="#FC4C59"/>
<path d="M16.5994 4.74383C16.8099 4.0375 15.901 3.17474 14.5693 2.8168C13.2376 2.45886 11.9875 2.74128 11.7771 3.4476C11.5666 4.15393 12.4755 5.01669 13.8072 5.37463C15.1389 5.73257 16.389 5.45015 16.5994 4.74383Z" fill="#FCEB88"/>
</svg>
