<svg width="24" height="24" viewBox="0 0 24 24" fill="none" xmlns="http://www.w3.org/2000/svg">
<path d="M12 23.722C18.6274 23.722 24 18.6191 24 12.3243C24 6.02957 18.6274 0.926651 12 0.926651C5.37258 0.926651 0 6.02957 0 12.3243C0 18.6191 5.37258 23.722 12 23.722Z" fill="#FD766D"/>
<path d="M14.5714 22.0394C7.94404 22.0394 2.5715 16.9365 2.5715 10.6418C2.5715 7.27872 4.10533 4.25635 6.54446 2.17009C2.65958 4.05675 0 7.89553 0 12.3244C0 18.6191 5.37254 23.722 11.9999 23.722C15.0866 23.722 17.9007 22.6147 20.0269 20.7961C18.3901 21.591 16.536 22.0394 14.5714 22.0394Z" fill="#FF4D4D"/>
<path d="M9.90994 10.1872C10.7188 10.1872 11.3745 9.56438 11.3745 8.79615C11.3745 8.02792 10.7188 7.40515 9.90994 7.40515C9.10112 7.40515 8.44543 8.02792 8.44543 8.79615C8.44543 9.56438 9.10112 10.1872 9.90994 10.1872Z" fill="#7F184C"/>
<path d="M18.1554 10.1872C18.9643 10.1872 19.6199 9.56438 19.6199 8.79615C19.6199 8.02792 18.9643 7.40515 18.1554 7.40515C17.3466 7.40515 16.6909 8.02792 16.6909 8.79615C16.6909 9.56438 17.3466 10.1872 18.1554 10.1872Z" fill="#7F184C"/>
<path d="M6.84316 11.6187C5.95202 11.6187 5.22949 12.3048 5.22949 13.1513H8.45673C8.45673 12.3048 7.73429 11.6187 6.84316 11.6187Z" fill="#F9A880"/>
<path d="M20.9179 11.4133C20.0267 11.4133 19.3042 12.0995 19.3042 12.946H22.5314C22.5315 12.0995 21.8091 11.4133 20.9179 11.4133Z" fill="#F9A880"/>
<path d="M16.9552 18.5381C16.7838 18.5381 16.6176 18.4522 16.5283 18.2999C16.0706 17.5196 15.2029 17.0349 14.2635 17.0349C13.3482 17.0349 12.4705 17.5246 11.973 18.3127C11.8343 18.5323 11.5345 18.6037 11.3033 18.472C11.072 18.3403 10.997 18.0555 11.1356 17.8359C11.8086 16.7698 13.0071 16.1075 14.2636 16.1075C15.5568 16.1075 16.7515 16.7747 17.3812 17.8487C17.5124 18.0724 17.4279 18.3548 17.1923 18.4794C17.1171 18.5192 17.0355 18.5381 16.9552 18.5381Z" fill="#7F184C"/>
<path d="M15.6565 5.09016C15.8669 4.38383 14.958 3.52107 13.6263 3.16312C12.2946 2.80518 11.0445 3.0876 10.8341 3.79393C10.6236 4.50025 11.5325 5.36302 12.8642 5.72096C14.1959 6.0789 15.446 5.79648 15.6565 5.09016Z" fill="#FCB288"/>
</svg>
