<svg width="5" height="21" viewBox="0 0 5 21" fill="none" xmlns="http://www.w3.org/2000/svg">
<path d="M3.83854 6.20293H3.30916C3.30916 6.20044 3.30916 6.19795 3.30916 6.19547C3.30916 2.57595 2.16703 0 2.16703 0C2.16703 0 1.0249 2.57585 1.0249 6.19547C1.0249 6.19795 1.0249 6.20044 1.0249 6.20293H0.495516V8.774H0V20.9999H4.33411V8.77404H3.83859V6.20297H3.83854V6.20293Z" fill="#FFAC00"/>
<path d="M3.83854 6.20293H3.30916C3.30916 6.20044 3.30916 6.19795 3.30916 6.19547C3.30916 2.57595 2.16703 0 2.16703 0C2.16703 0 1.0249 2.57585 1.0249 6.19547C1.0249 6.19795 1.0249 6.20044 1.0249 6.20293H0.495516V8.774H0V20.9999H4.33411V8.77404H3.83859V6.20297H3.83854V6.20293Z" fill="#FFAC00"/>
<path d="M3.83842 6.20319H0.495483V8.77412H3.83842V6.20319Z" fill="#DB6D00"/>
<path d="M2.16703 0.00012207C2.16703 0.00012207 1.0249 2.57598 1.0249 6.19559C1.0249 6.19807 1.0249 6.20056 1.0249 6.20305H0.495516V8.77412H0V21H2.16703V0.00012207Z" fill="#FFD68B"/>
<path d="M2.16695 6.20319H0.495483V8.77412H2.16695V6.20319Z" fill="#FFAC00"/>
</svg>
