<svg width="43" height="22" viewBox="0 0 43 22" fill="none" xmlns="http://www.w3.org/2000/svg">
<path d="M37.2884 13.841V13.9296L37.372 13.959C38.2332 14.2619 39.0985 14.5547 39.9692 14.8326C40.0532 14.8595 40.135 14.8856 40.2145 14.9109C41.0722 15.1844 41.6716 15.3756 42.0806 15.5517C42.5322 15.7463 42.7071 15.9052 42.7619 16.0919C42.7904 16.1886 42.7911 16.3066 42.7618 16.4639C42.7326 16.6215 42.6752 16.8089 42.5958 17.0413C42.5598 17.1469 42.5195 17.261 42.4758 17.3846C42.3287 17.801 42.1438 18.3242 41.9578 18.9873C41.9072 19.1677 41.8921 19.4289 41.8893 19.7108C41.8873 19.9137 41.8917 20.1362 41.8961 20.3585C41.8979 20.4482 41.8996 20.5378 41.901 20.6261C41.9057 20.9362 41.9053 21.2306 41.8831 21.4679C41.872 21.5865 41.8559 21.6866 41.8338 21.7651C41.82 21.814 41.8053 21.8497 41.7912 21.875H41.7813H41.7572H41.7332H41.7091H41.685H41.661H41.6369H41.6128H41.5887H41.5647H41.5406H41.5165H41.4925H41.4684H41.4443H41.4203H41.3962H41.3721H41.348H41.324H41.2999H41.2758H41.2518H41.2277H41.2036H41.1796H41.1555H41.1314H41.1073H41.0833H41.0592H41.0351H41.0111H40.987H40.9629H40.9389H40.9148H40.8907H40.8666H40.8426H40.8185H40.7944H40.7704H40.7463H40.7222H40.6982H40.6741H40.65H40.6259H40.6019H40.5778H40.5537H40.5297H40.5056H40.4815H40.4575H40.4334H40.4093H40.3852H40.3612H40.3371H40.313H40.289H40.2649H40.2408H40.2168H40.1927H40.1686H40.1445H40.1205H40.0964H40.0723H40.0483H40.0242H40.0001H39.9761H39.952H39.9279H39.9038H39.8798H39.8557H39.8316H39.8076H39.7835H39.7594H39.7354H39.7113H39.6872H39.6631H39.6391H39.615H39.5909H39.5669H39.5428H39.5187H39.4947H39.4706H39.4465H39.4224H39.3984H39.3743H39.3502H39.3262H39.3021H39.278H39.254H39.2299H39.2058H39.1817H39.1577H39.1336H39.1095H39.0855H39.0614H39.0373H39.0133H38.9892H38.9651H38.941H38.917H38.8929H38.8688H38.8448H38.8207H38.7966H38.7726H38.7485H38.7244H38.7003H38.6763H38.6522H38.6281H38.6041H38.58H38.5559H38.5319H38.5078H38.4837H38.4597H38.4356H38.4115H38.3874H38.3634H38.3393H38.3152H38.2912H38.2671H38.243H38.219H38.1949H38.1708H38.1467H38.1227H38.0986H38.0745H38.0505H38.0264H38.0023H37.9783H37.9542H37.9301H37.906H37.882H37.8579H37.8338H37.8098H37.7857H37.7616H37.7376H37.7135H37.6894H37.6653H37.6413H37.6172H37.5931H37.5691H37.545H37.5209H37.4969H37.4728H37.4487H37.4246H37.4006H37.3765H37.3524H37.3284H37.3043H37.2802H37.2562H37.2321H37.208H37.1839H37.1599H37.1358H37.1117H37.0877H37.0636H37.0395H37.0155H36.9914H36.9673H36.9433H36.9192H36.8951H36.871H36.847H36.8229H36.7988H36.7748H36.7507H36.7266H36.7026H36.6785H36.6544H36.6303H36.6063H36.5822H36.5581H36.5341H36.51H36.4859H36.4619H36.4378H36.4137H36.3896H36.3656H36.3415H36.3174H36.2934H36.2693H36.2452H36.2212H36.1971H36.173H36.1489H36.1249H36.1008H36.0767H36.0527H36.0286H36.0045H35.9805H35.9564H35.9323H35.9083H35.8842H35.8601H35.836H35.812H35.7879H35.7638H35.7398H35.7157H35.6916H35.6676H35.6435H35.6194H35.5953H35.5713H35.5472H35.5231H35.4991H35.475H35.4509H35.4269H35.4028H35.3787H35.3546H35.3306H35.3065H35.2824H35.2584H35.2343H35.2102H35.1862H35.1621H35.138H35.1139H35.0899H35.0658H35.0417H35.0177H34.9936H34.9695H34.9455H34.9214H34.8973H34.8732H34.8492H34.8251H34.801H34.777H34.7529H34.7288H34.7048H34.6807H34.6566H34.6326H34.6085H34.5844H34.5603H34.5363H34.5122H34.4881H34.4641H34.44H34.4159H34.3919H34.3678H34.3437H34.3196H34.2956H34.2715H34.2474H34.2234H34.1993H34.1752H34.1512H34.1271H34.103H34.0789H34.0549H34.0308H34.0067H33.9827H33.9586H33.9345H33.9105H33.8864H33.8623H33.8382H33.8142H33.7901H33.766H33.742H33.7179H33.6938H33.6698H33.6457H33.6216H33.5976H33.5735H33.5494H33.5253H33.5013H33.4772H33.4531H33.4291H33.405H33.3809H33.3569H33.3328H33.3087H33.2846H33.2606H33.2365H33.2124H33.1884H33.1643H33.1402H33.1162H33.0921H33.068H33.0439H33.0199H32.9958H32.9717H32.9477H32.9236H32.8995H32.8755H32.8514H32.8273H32.8032H32.7792H32.7551H32.731H32.707H32.6829H32.6588H32.6348H32.6107H32.5866H32.5625H32.5385H32.5144H32.4903H32.4663H32.4422H32.4181H32.3941H32.37H32.3459H32.3218H32.2978H32.2737H32.2496H32.2256H32.2015H32.1774H32.1534H32.1293H32.1052H32.0812H32.0571H32.033H32.0089H31.9849H31.9608H31.9367H31.9127H31.8886H31.8645H31.8405H31.8164H31.7923H31.7682H31.7442H31.7201H31.696H31.672H31.6479H31.6238H31.5998H31.5757H31.5516H31.5275H31.5035H31.4794H31.4553H31.4313H31.4072H31.3831H31.3591H31.335H31.3109H31.2868H31.2628H31.2387H31.2146H31.1906H31.1665H31.1424H31.1184H31.0943H31.0702H31.0461H31.0221H30.998H30.9739H30.9499H30.9258H30.9017H30.8777H30.8536H30.8295H30.8054H30.7814H30.7573H30.7332H30.7092H30.6851H30.661H30.637H30.6129H30.5888H30.5647H30.5407H30.5166H30.4925H30.4685H30.4444H30.4203H30.3962H30.3722H30.3481H30.324H30.3H30.2759H30.2518H30.2278H30.2037H30.1796H30.1556H30.1315H30.1074H30.0833H30.0593H30.0352H30.0111H29.9871H29.963H29.9389H29.9148H29.8908H29.8667H29.8426H29.8186H29.7945H29.7704H29.7464H29.7223H29.6982H29.6741H29.6501H29.626H29.6019H29.5779H29.5538H29.5297H29.4813H29.4329H29.3845H29.3361H29.2877H29.2393H29.1909H29.1425H29.0941H29.0457H28.9973H28.9489H28.9005H28.8521H28.8036H28.7552H28.7068H28.6584H28.61H28.5616H28.5132H28.4648H28.4164H28.368H28.3196H28.2712H28.2228H28.1744H28.126H28.0776H28.0292H27.9808H27.9324H27.8839H27.8355H27.7871H27.7387H27.6903H27.6419H27.5935H27.5451H27.4967H27.4483H27.3999H27.3515H27.3031H27.2547H27.2063H27.1579H27.1095H27.0611H27.0127H26.9643H26.9158H26.8674H26.819H26.7706H26.7222H26.6738H26.6254H26.577H26.5286H26.4802H26.4318H26.3834H26.335H26.2866H26.2382H26.1898H26.1414H26.093H26.0445H25.9961H25.9477H25.8993H25.8509H25.8025H25.7541H25.7057H25.6573H25.6089H25.5605H25.5121H25.4637H25.4153H25.3669H25.3185H25.2701H25.2217H25.1733H25.1248H25.0764H25.028H24.9796H24.9312H24.8828H24.8344H24.786H24.7376H24.6892H24.6408H24.5924H24.544H24.4956H24.4472H24.3988H24.3504H24.302H24.2535H24.2051H24.1567H24.1083H24.0599H24.0115H23.9631H23.9147H23.8663H23.8179H23.7695H23.7211H23.6727H23.6243H23.5759H23.5275H23.4791H23.4307H23.3823H23.3338H23.2854H23.237H23.1886H23.1402H23.0918H23.0434H22.995H22.9466H22.8982H22.8498H22.8014H22.753H22.7046H22.6562H22.6078H22.5594H22.511H22.4625H22.4141H22.3657H22.3173H22.2689H22.2205H22.1721H22.1237H22.0753H22.0269H21.9785H21.9301H21.8817H21.8333H21.7849H21.7365H21.6881H21.6397H21.5912H21.5428H21.4944H21.446H21.3976H21.3492H21.3008H21.2524H21.204H21.1556H21.1072H21.0588H21.0104H20.962H20.9136H20.8652H20.8168H20.7684H20.7199H20.6715H20.6231H20.5747H20.5263H20.4779H20.4295H20.3811H20.3327H20.2843H20.2359H20.1875H20.1391H20.0907H20.0423H19.9939H19.9455H19.897H19.8486H19.8002H19.7518H19.7034H19.655H19.6066H19.5582H19.5098H19.4614H19.413H19.3646H19.3162H19.2678H19.2194H19.171H19.1226H19.0742H19.0257H18.9773H18.9289H18.8805H18.8321H18.7837H18.7353H18.6869H18.6385H18.5901H18.5417H18.4933H18.4449H18.3965H18.3481H18.2997H18.2513H18.2028H18.1544H18.106H18.0576H18.0092H17.9608H17.9124H17.864H17.8156H17.7672H17.7188H17.6704H17.622H17.5736H17.5252H17.4768H17.4284H17.3799H17.3315H17.2831H17.2347H17.1863H17.1379H17.0895H17.0411H16.9927H16.9443H16.8959H16.8475H16.7991H16.7507H16.7023H16.6539H16.6055H16.557H16.5086H16.4602H16.4118H16.3634H16.315H16.2666H16.2182H16.1698H16.1214H16.073H16.0246H15.9762H15.9278H15.8794H15.831H15.7826H15.7341H15.6857H15.6373H15.5889H15.5405H15.4921H15.4437H15.3953H15.3469H15.2985H15.2501H15.2017H15.1533H15.1049H15.0565H15.0081H14.9597H14.9112H14.8628H14.8144H14.766H14.7176H14.6692H14.6208H14.5724H14.524H14.4756H14.4272H14.3788H14.3304H14.282H14.2336H14.1852H14.1368H14.0883H14.0399H13.9915H13.9431H13.8947H13.8463H13.7979H13.7495H13.7011H13.6527H13.6043H13.5559H13.5075H13.4591H13.4107H13.3623H13.3139H13.2654H13.217H13.1686H13.1202H13.0718H13.0234H12.975H12.9266H12.8782H12.8298H12.7814H12.733H12.6846H12.6362H12.5878H12.5394H12.4909H12.4425H12.3941H12.3457H12.2973H12.2489H12.2005H12.1521H12.1037H12.0553H12.0069H11.9585H11.9101H11.8617H11.8133H11.7649H11.7165H11.668H11.6196H11.5712H11.5228H11.4744H11.426H11.3776H11.3292H11.2808H11.2324H11.184H11.1356H11.0872H11.0388H10.9904H10.942H10.8935H10.8451H10.7967H10.7483H10.6999H10.6515H10.6031H10.5547H10.5063H10.4579H10.4095H10.3611H10.3127H10.2643H10.2159H10.1675H10.1191H10.0706H10.0222H9.97383H9.92543H9.87702H9.82861H9.78021H9.7318H9.6834H9.63499H9.58658H9.53818H9.48977H9.44136H9.39296H9.34455H9.29615H9.24774H9.19933H9.15093H9.10252H9.05412H9.00571H8.9573H8.9089H8.86049H8.81208H8.76368H8.71527H8.66687H8.61846H8.57005H8.52165H8.47324H8.42483H8.37643H8.32802H8.27962H8.23121H8.1828H8.1344H8.08599H8.03758H7.98918H7.94077H7.89237H7.84396H7.79555H7.74715H7.69874H7.65033H7.60193H7.55352H7.50512H7.45671H7.4083H7.3599H7.31149H7.26308H7.21468H7.16627H7.11787H7.06946H7.02105H6.97265H6.92424H6.87583H6.82743H6.77902H6.73062H6.68221H6.6338H6.5854H6.53699H6.48858H6.44018H6.39177H6.34337H6.29496H6.24655H6.19815H6.14974H6.10133H6.05293H6.00452H5.95612H5.90771H5.8593H5.8109H5.76249H5.71408H5.66568H5.61727H5.56886H5.52046H5.47205H5.42365H5.37524H5.32683H5.27843H5.23002H5.18161H5.13321H5.0848H5.0364H4.98799H4.93958H4.89118H4.87767C4.9672 20.5162 5.60024 19.7726 6.21254 19.0534C6.35791 18.8826 6.50211 18.7133 6.63758 18.5373C6.99887 18.0682 7.29162 17.5549 7.33824 16.8557C7.3846 16.1603 7.18641 15.2979 6.60412 14.1295L6.60412 14.1295C5.97428 12.8659 4.92354 11.4285 3.90479 10.0349C3.57215 9.57983 3.24293 9.12946 2.93288 8.69133C2.29981 7.79675 1.74615 6.95303 1.39547 6.21607C1.04114 5.47143 0.911406 4.87057 1.07214 4.4427L1.07215 4.44268C1.10008 4.36829 1.17575 4.2919 1.3325 4.22553C1.48806 4.15966 1.70623 4.11135 1.98632 4.08286C2.5456 4.02597 3.32275 4.0507 4.27083 4.1459C6.16506 4.33609 8.71644 4.80483 11.5164 5.44056C17.116 6.71197 23.6924 8.64731 27.9618 10.3429C28.341 10.4935 28.7201 10.6444 29.0993 10.7954C31.1605 11.6158 33.2242 12.4373 35.3052 13.2109L35.4738 13.2735V13.0937V12.0917V12.0082L35.3967 11.9762L29.2024 9.40186C28.7397 9.20955 28.5204 8.67863 28.7128 8.21585L28.7128 8.21583C28.905 7.75316 29.4364 7.53409 29.8987 7.72627L29.9467 7.61084L29.8987 7.72627L35.3008 9.97142L35.4738 10.0433V9.85599V8.81782V8.73756L35.4008 8.70416L29.6676 6.08006L29.6428 6.06872H29.6156H20.3806C20.0369 6.06872 19.7227 5.87454 19.5691 5.56721L19.5691 5.56719C19.4154 5.25982 19.4485 4.89199 19.6547 4.61707L22.7515 0.48791C22.9231 0.2594 23.1919 0.124993 23.4775 0.124993H29.8407C29.9697 0.124993 30.0971 0.152509 30.2148 0.205706L36.7551 3.16487C37.0798 3.31179 37.2884 3.63507 37.2884 3.99143V6.18981V8.15496V11.3926V11.3927V11.3927V11.3927V11.3928V11.3928V11.3928V11.3929V11.3929V11.393V11.393V11.393V11.3931V11.3931V11.3932V11.3932V11.3932V11.3933V11.3933V11.3933V11.3934V11.3934V11.3935V11.3935V11.3935V11.3936V11.3936V11.3937V11.3937V11.3937V11.3938V11.3938V11.3938V11.3939V11.3939V11.394V11.394V11.394V11.3941V11.3941V11.3942V11.3942V11.3942V11.3943V11.3943V11.3944V11.3944V11.3944V11.3945V11.3945V11.3945V11.3946V11.3946V11.3947V11.3947V11.3947V11.3948V11.3948V11.3949V11.3949V11.3949V11.395V11.395V11.395V11.3951V11.3951V11.3952V11.3952V11.3952V11.3953V11.3953V11.3954V11.3954V11.3954V11.3955V11.3955V11.3955V11.3956V11.3956V11.3957V11.3957V11.3957V11.3958V11.3958V11.3959V11.3959V11.3959V11.396V11.396V11.396V11.3961V11.3961V11.3962V11.3962V11.3962V11.3963V11.3963V11.3964V11.3964V11.3964V11.3965V11.3965V11.3966V11.3966V11.3966V11.3967V11.3967V11.3967V11.3968V11.3968V11.3969V11.3969V11.3969V11.397V11.397V11.3971V11.3971V11.3971V11.3972V11.3972V11.3972V11.3973V11.3973V11.3974V11.3974V11.3974V11.3975V11.3975V11.3976V11.3976V11.3976V11.3977V11.3977V11.3977V11.3978V11.3978V11.3979V11.3979V11.3979V11.398V11.398V11.3981V11.3981V11.3981V11.3982V11.3982V11.3983V11.3983V11.3983V11.3984V11.3984V11.3984V11.3985V11.3985V11.3986V11.3986V11.3986V11.3987V11.3987V11.3988V11.3988V11.3988V11.3989V11.3989V11.3989V11.399V11.399V11.3991V11.3991V11.3991V11.3992V11.3992V11.3993V11.3993V11.3993V11.3994V11.3994V11.3994V11.3995V11.3995V11.3996V11.3996V11.3996V11.3997V11.3997V11.3998V11.3998V11.3998V11.3999V11.3999V11.4V11.4V11.4V11.4001V11.4001V11.4001V11.4002V11.4002V11.4003V11.4003V11.4003V11.4004V11.4004V11.4005V11.4005V11.4005V11.4006V11.4006V11.4006V11.4007V11.4007V11.4008V11.4008V11.4008V11.4009V11.4009V11.401V11.401V11.401V11.4011V11.4011V11.4011V11.4012V11.4012V11.4013V11.4013V11.4013V11.4014V11.4014V11.4015V11.4015V11.4015V11.4016V11.4016V11.4017V11.4017V11.4017V11.4018V11.4018V11.4018V11.4019V11.4019V11.402V11.402V11.402V11.4021V11.4021V11.4022V11.4022V11.4022V11.4023V11.4023V11.4023V11.4024V11.4024V11.4025V11.4025V13.841Z" fill="#A6EA65" stroke="black" stroke-width="0.25"/>
</svg>
